<?xml version="1.0" encoding="utf-8"?>
<!-- Generator: Adobe Illustrator 24.1.1, SVG Export Plug-In . SVG Version: 6.00 Build 0)  -->
<svg version="1.1" id="Capa_1" fill="#dadada" xmlns="http://www.w3.org/2000/svg" xmlns:xlink="http://www.w3.org/1999/xlink" x="0px" y="0px"
	 viewBox="0 0 767 768" style="enable-background:new 0 0 767 768;" xml:space="preserve">
<g>
	<path d="M661.1,231c43.2,34.4,73.7,77.2,90.6,129.5c11.6,35.9,17.7,72.9,15.3,110.6c-3.6,58.3-20.4,112.2-56,159.3
		c-21.7,28.8-48.7,51.9-79,71.2c-49.9,31.7-104.5,50.4-162.8,59.6c-41.9,6.6-84,8.5-126.3,5.2c-70.8-5.4-138.1-22.8-199.5-59.8
		c-47.8-28.8-86.8-66-112.2-116.4c-15.6-31-24.7-63.8-29-98.2C-4.8,435.4,4.4,381,27.8,329.2c17.3-38.2,43.3-70,75.9-96.5
		c2-1.6,2.9-1.2,4.2,0.5c8.7,11.6,19.7,20.5,32.9,26.5c2.6,1.1,2.7,3,2.6,5.3c-0.3,32.5,22.6,59.7,52.6,68.2
		c17.9,5,35.1,2.2,51.9-4.9c43.6-18.7,87.1-37.5,130.6-56.3c3.4-1.5,6.3-1.6,9.8-0.1c43.5,18.9,87,37.6,130.6,56.4
		c32.4,14,61.7,8.9,86-15.8c12.3-12.5,18.6-28.3,18.6-46.1c0-4.1,1.3-6.1,5.1-7.7C642.2,252.9,652.8,243.3,661.1,231z"/>
	<path d="M347.3,120.6c-9.4-19.3-18.4-38.9-33.2-55c-5-5.4-9.7-10.9-12.2-17.9c-5.5-15.2,0.1-32.5,13.2-41.1
		c15.5-10.1,33.4-8.7,46.5,4.6C380.2,30,394.5,51.9,406,75.4c6.6,13.4,12,27.4,16.5,41.7c1,3.2,2.5,4.4,6,4.7
		c46.6,3.8,92.1,12.7,136.1,28.9c15.2,5.6,30.1,12.1,44.8,19.1c10.7,5.1,16.2,15.2,14.5,26.3c-1.7,10.9-9,17.7-21.3,19.5
		c-9.1,1.3-18.3,0.4-27.4,0.6c-8.4,0.1-16.8,0-25,0c-0.9,2.1,0.6,3.1,1.3,4.2c6.2,9.5,12.4,18.9,18.6,28.4
		c6.9,10.6,6.9,21.5,0.1,29.5c-7.9,9.3-19.6,11.8-31.3,6.7c-50.3-21.9-100.7-43.7-150.9-65.7c-3.1-1.4-5.6-1.3-8.7,0
		c-50.4,22-101,44-151.4,65.9c-12.4,5.4-22,3.3-30.4-6.6c-7-8.2-7.2-19-0.5-29.4c6.2-9.7,12.5-19.3,19-28.8c1.9-2.9,2.4-4.3-2-4.2
		c-14.8,0.2-29.6,0-44.4,0.4c-18.8,0.5-32.1-17.7-24.4-34.1c3-6.5,8.4-11.1,14.8-14.1c46.9-22.6,96.3-36.7,148-42.9
		c11.1-1.3,22.1-2.5,33.3-3.3C343,121.9,345.1,122.1,347.3,120.6z"/>
</g>
</svg>
